<svg xmlns="http://www.w3.org/2000/svg" width="29.9" height="29.926" viewBox="0 0 29.9 29.926">
  <path id="Vector" d="M15.688.684a14.978,14.978,0,1,0,8.176,2.447A14.978,14.978,0,0,0,15.688.684Zm0,26.961a11.983,11.983,0,0,1-8.313-3.37,8.987,8.987,0,0,1,16.626,0A11.983,11.983,0,0,1,15.688,27.646Zm-3-14.978a3,3,0,1,1,.877,2.118A3,3,0,0,1,12.693,12.667Zm13.346,8.987a11.983,11.983,0,0,0-5.857-5.063,5.991,5.991,0,1,0-8.987,0,11.982,11.982,0,0,0-5.857,5.063,11.863,11.863,0,0,1-1.633-5.991,11.983,11.983,0,0,1,23.966,0A11.863,11.863,0,0,1,26.038,21.654Z" transform="translate(-0.738 -0.684)" fill="#fff"/>
</svg>
